#!OML:ASF \\sashay\E\basketball\basketball\Project 1\Capture day 1\Session 1\Subject.ASF
:FULLY-SPECIFIED
:DEGREES
266
root -34.2566 15.3327 -0.755391 -182.941 70.0123 -180.794
lowerback 9.47532 2.57976 -2.98161
upperback 0.755543 3.10232 -1.52768
thorax -4.59557 1.60298 -0.330757
lowerneck 15.6979 -10.9575 -27.9221
upperneck -3.7164 -18.82 24.9519
head 1.57612 -10.2854 12.3824
rclavicle 9.93923e-017 -1.59028e-014
rhumerus 69.0421 -1.15986 -73.2854
rradius 81.4997
rwrist -3.95809
rhand -40.7604 83.7148
rfingers 7.12502
rthumb -13.7007 54.1858
lclavicle 9.93923e-017 -1.59028e-014
lhumerus 90.8158 -0.586379 51.974
lradius 65.6232
lwrist 28.4621
lhand -21.4202 17.6682
lfingers 7.12502
lthumb 4.96865 47.59
rfemur -14.6957 -3.82833 6.44067
rtibia 43.4914
rfoot -9.45033 -17.6853
rtoes -39.6782
lfemur -6.46727 4.19474 -15.4081
ltibia 41.0179
lfoot -23.4024 -1.92892
ltoes -20.204
267
root -34.2886 15.3553 -0.792961 -183.197 69.671 -181.22
lowerback 9.02243 2.49156 -3.38279
upperback 1.87117 3.03789 -1.11646
thorax -3.22231 1.5709 0.384046
lowerneck 12.875 -11.6489 -28.9147
upperneck -3.61674 -19.2983 25.405
head 2.35089 -10.3728 12.3376
rclavicle -4.40805e-014 1.31198e-014
rhumerus 71.5096 -0.855156 -72.6287
rradius 81.1995
rwrist -4.00682
rhand -40.8559 83.9411
rfingers 7.12502
rthumb -13.7927 54.4183
lclavicle -4.40805e-014 1.31198e-014
lhumerus 91.6425 1.27735 52.7534
lradius 65.6784
lwrist 28.1914
lhand -21.3271 17.8548
lfingers 7.12502
lthumb 5.05851 47.7744
rfemur -14.7501 -3.59845 6.22021
rtibia 43.2808
rfoot -8.08822 -18.2801
rtoes -41.0786
lfemur -6.90715 4.46947 -15.7541
ltibia 41.1757
lfoot -23.2516 -0.835978
ltoes -26.0553
268
root -34.319 15.3809 -0.830393 -182.901 69.2885 -181.113
lowerback 9.66944 2.74943 -2.83568
upperback 0.877171 3.33927 -1.66636
thorax -4.5645 1.71804 -0.594512
lowerneck 15.9794 -11.0786 -28.2219
upperneck -4.2032 -19.0608 25.9434
head 1.60943 -10.4603 12.791
rclavicle 9.22858e-014 -4.92986e-014
rhumerus 69.8599 -1.19317 -73.0966
rradius 80.9419
rwrist -3.68804
rhand -40.9489 84.0287
rfingers 7.12502
rthumb -13.8824 54.5121
lclavicle 9.22858e-014 -4.92986e-014
lhumerus 90.86 -0.156579 52.3048
lradius 65.7288
lwrist 28.3999
lhand -21.0386 17.9806
lfingers 7.12502
lthumb 5.33711 47.8934
rfemur -14.9226 -3.32139 6.21312
rtibia 43.0448
rfoot -7.28621 -18.7532
rtoes -41.2127
lfemur -7.3729 4.66102 -15.892
ltibia 41.2879
lfoot -22.7749 -0.165149
ltoes -28.0066
269
root -34.3487 15.3905 -0.868482 -182.796 68.8443 -181.19
lowerback 8.81057 2.4429 -3.49505
upperback 2.46235 3.0169 -0.660084
thorax -2.52066 1.55452 0.947064
lowerneck 11.8678 -11.8509 -30.6422
upperneck -3.80707 -19.6018 26.542
head 2.87288 -10.4915 12.8572
rclavicle -1.73937e-014 5.96354e-015
rhumerus 73.2297 -0.276971 -71.8812
rradius 80.793
rwrist -3.62868
rhand -40.9641 83.9
rfingers 7.12502
rthumb -13.897 54.3844
lclavicle -1.73937e-014 5.96354e-015
lhumerus 91.7308 2.82368 53.7367
lradius 65.6669
lwrist 27.9076
lhand -20.9206 18.0955
lfingers 7.12502
lthumb 5.45105 48.0053
rfemur -14.9703 -3.34514 6.10421
rtibia 42.8992
rfoot -6.44506 -19.1965
rtoes -41.3974
lfemur -7.75786 4.91515 -16.0543
ltibia 41.3253
lfoot -22.4642 -0.461793
ltoes -26.8819
270
root -34.3799 15.3965 -0.902714 -183.076 68.3869 -181.632
lowerback 8.74359 2.4439 -3.52124
upperback 2.85173 3.0448 -0.71103
thorax -2.07939 1.56637 0.919962
lowerneck 11.2213 -12.1606 -30.9552
upperneck -4.0112 -19.8971 27.0788
head 3.11581 -10.6094 12.9849
rclavicle -3.23522e-014 2.06736e-014
rhumerus 74.025 -0.247115 -71.7822
rradius 80.7152
rwrist -3.42714
rhand -41.0918 83.7421
rfingers 7.12502
rthumb -14.0201 54.2349
lclavicle -3.23522e-014 2.06736e-014
lhumerus 92.1062 3.50639 53.9206
lradius 65.6671
lwrist 27.9277
lhand -20.9368 18.2471
lfingers 7.12502
lthumb 5.43537 48.1574
rfemur -14.8929 -3.31657 5.83129
rtibia 42.9046
rfoot -6.64405 -19.4285
rtoes -39.7743
lfemur -8.08203 5.1639 -16.3385
ltibia 41.3151
lfoot -22.8601 -2.22973
ltoes -25.5067
271
root -34.4086 15.4002 -0.928532 -183.006 68.0546 -181.798
lowerback 9.67671 2.84086 -3.06524
upperback 1.15465 3.45563 -1.57582
thorax -4.29919 1.78063 -0.37914
lowerneck 15.9695 -11.2504 -29.3247
upperneck -4.50337 -19.4979 27.156
head 1.91803 -10.7265 13.3375
rclavicle 6.42571e-014 -1.51076e-014
rhumerus 70.9522 -0.538803 -72.6449
rradius 80.491
rwrist -3.462
rhand -41.0268 83.7311
rfingers 7.12502
rthumb -13.9575 54.2196
lclavicle 6.42571e-014 -1.51076e-014
lhumerus 90.7219 1.07599 52.9225
lradius 65.6751
lwrist 28.4345
lhand -20.585 18.4622
lfingers 7.12502
lthumb 5.77502 48.3635
rfemur -15.049 -3.25587 5.81354
rtibia 43.0319
rfoot -7.07966 -19.8033
rtoes -38.2998
lfemur -8.45936 5.15467 -16.4705
ltibia 41.3427
lfoot -22.7791 -3.91554
ltoes -20.6292
272
root -34.4373 15.39 -0.947486 -182.482 67.7638 -181.427
lowerback 9.31283 2.90343 -3.30393
upperback 1.91937 3.58449 -1.19936
thorax -3.34101 1.84458 0.173671
lowerneck 13.8581 -11.948 -29.8328
upperneck -4.05118 -20.0993 27.2644
head 2.63734 -10.8991 13.1155
rclavicle 5.84924e-014 -1.74931e-014
rhumerus 72.5128 -0.421016 -72.0565
rradius 80.3471
rwrist -3.8588
rhand -40.7942 83.8886
rfingers 7.12502
rthumb -13.7333 54.3618
lclavicle 5.84924e-014 -1.74931e-014
lhumerus 91.4203 2.25604 53.5575
lradius 65.669
lwrist 28.2021
lhand -20.3429 18.4476
lfingers 7.12502
lthumb 6.0088 48.3424
rfemur -15.1121 -2.91616 6.0336
rtibia 43.2
rfoot -7.70434 -20.3132
rtoes -36.7843
lfemur -8.82891 5.00947 -16.3435
ltibia 41.4449
lfoot -22.4551 -5.59339
ltoes -13.0355
273
root -34.4675 15.3848 -0.970661 -182.51 67.2522 -181.563
lowerback 9.80271 3.02226 -2.9943
upperback 1.47902 3.71878 -1.62471
thorax -4.02759 1.91139 -0.500094
lowerneck 15.402 -11.8073 -29.2032
upperneck -4.5134 -20.1073 27.6533
head 2.24221 -11.0189 13.3371
rclavicle 5.00937e-014 -1.43125e-014
rhumerus 71.7237 -0.552213 -72.3913
rradius 80.2083
rwrist -3.88067
rhand -40.8458 83.8912
rfingers 7.12502
rthumb -13.783 54.3677
lclavicle 5.00937e-014 -1.43125e-014
lhumerus 91.0745 1.6668 53.0741
lradius 65.7609
lwrist 28.4186
lhand -20.4805 18.4945
lfingers 7.12502
lthumb 5.87593 48.3931
rfemur -14.9916 -2.86479 6.00992
rtibia 43.4129
rfoot -8.22219 -20.7909
rtoes -35.7058
lfemur -9.26396 4.99635 -16.5367
ltibia 41.6256
lfoot -22.3723 -5.75437
ltoes -13.6636
274
root -34.4957 15.4006 -0.999908 -183.005 66.5581 -182.26
lowerback 10.2867 3.12941 -2.76981
upperback 0.964495 3.82334 -2.20034
thorax -4.78238 1.95984 -1.28795
lowerneck 17.3891 -11.765 -28.246
upperneck -5.33709 -20.2007 27.936
head 1.64969 -11.2063 13.5187
rclavicle -3.66758e-014 2.94201e-014
rhumerus 70.7589 -0.822252 -72.7722
rradius 80.0521
rwrist -3.88783
rhand -40.8587 83.7199
rfingers 7.12502
rthumb -13.7955 54.1974
lclavicle -3.66758e-014 2.94201e-014
lhumerus 90.6992 0.924139 52.3999
lradius 65.9081
lwrist 28.8259
lhand -20.673 18.7128
lfingers 7.12502
lthumb 5.69005 48.6164
rfemur -15.0145 -3.25244 5.74757
rtibia 43.6828
rfoot -9.61902 -20.6701
rtoes -32.9972
lfemur -9.8353 5.08978 -17.0688
ltibia 41.9473
lfoot -22.5197 -5.01116
ltoes -19.6274
275
root -34.5223 15.4144 -1.02186 -183.113 66.0552 -182.466
lowerback 10.3302 3.18805 -2.75992
upperback 1.23123 3.91636 -2.3271
thorax -4.51752 2.00899 -1.43003
lowerneck 17.1819 -12.1427 -27.9504
upperneck -5.74962 -20.5599 28.1867
head 1.67582 -11.3858 13.4929
rclavicle 6.27166e-014 1.35174e-014
rhumerus 71.1856 -0.870086 -72.7892
rradius 79.9945
rwrist -4.03986
rhand -40.6841 83.8951
rfingers 7.12502
rthumb -13.6272 54.3612
lclavicle 6.27166e-014 1.35174e-014
lhumerus 90.8908 1.54571 51.9629
lradius 66.072
lwrist 29.3752
lhand -20.9337 19.064
lfingers 7.12502
lthumb 5.43836 48.9742
rfemur -14.9143 -3.34425 5.75188
rtibia 44.0785
rfoot -12.4003 -19.6914
rtoes -26.1477
lfemur -10.2715 5.13621 -17.3239
ltibia 42.3143
lfoot -22.5759 -4.94853
ltoes -22.0282
276
root -34.5504 15.3955 -1.03332 -183.029 65.6526 -182.45
lowerback 9.99773 3.08747 -3.32527
upperback 2.11669 3.80844 -1.69943
thorax -3.48753 1.96483 -0.392719
lowerneck 14.9242 -12.5476 -29.264
upperneck -5.50316 -20.9272 28.507
head 2.41448 -11.4265 13.476
rclavicle 3.8763e-015 -1.51076e-014
rhumerus 72.9166 -0.114418 -72.0293
rradius 79.8789
rwrist -4.07724
rhand -40.7577 84.2342
rfingers 7.12502
rthumb -13.6981 54.705
lclavicle 3.8763e-015 -1.51076e-014
lhumerus 91.1166 3.22762 52.7998
lradius 66.2353
lwrist 29.2486
lhand -20.9057 19.1892
lfingers 7.12502
lthumb 5.46542 49.0987
rfemur -14.6493 -3.30801 5.97827
rtibia 44.5751
rfoot -13.1283 -19.5848
rtoes -25.2101
lfemur -10.7418 5.15687 -17.4136
ltibia 42.7254
lfoot -22.5556 -5.21417
ltoes -23.1175
